# xmcd
#
# Track frame offsets: 
#        150
#        11175
#        25035
#        40648
#        58553
#        73683
#        85793
#        102653
#        115513
#        128938
#
# Disc length: 1957 seconds
#
# Revision: 2
# Processed by: cddbd v1.4PL0 Copyright (c) Steve Scherf et al.
# Submitted via: ExactAudioCopy v0.90b4
#
DISCID=7c07a30a
DTITLE=Vern Gosdin - Set 'Em Up
DYEAR=1900
DGENRE=Country
TTITLE0=Set 'Em Up Joe
TTITLE1=Tanqueray
TTITLE2=I'D Better Write It Down
TTITLE3=It's Not Over,Yet
TTITLE4=The Garden
TTITLE5=Once And For All
TTITLE6=Take Me Home To Alabama
TTITLE7=Who Are You Gonna Blame It On This Time
TTITLE8=I Knew My Day Would Come
TTITLE9=That Just About Does It
EXTD=
EXTT0=
EXTT1=
EXTT2=
EXTT3=
EXTT4=
EXTT5=
EXTT6=
EXTT7=
EXTT8=
EXTT9=
PLAYORDER=
